<svg t="1603794029424" class="icon" viewBox="0 0 1024 1024" version="1.1" xmlns="http://www.w3.org/2000/svg" p-id="7172" width="128" height="128"><path d="M896 42.666667H128C91.733333 42.666667 64 70.4 64 106.666667v810.666666c0 36.266667 27.733333 64 64 64h768c36.266667 0 64-27.733333 64-64V106.666667c0-36.266667-27.733333-64-64-64z m21.333333 874.666666c0 12.8-8.533333 21.333333-21.333333 21.333334H128c-12.8 0-21.333333-8.533333-21.333333-21.333334V106.666667c0-12.8 8.533333-21.333333 21.333333-21.333334h768c12.8 0 21.333333 8.533333 21.333333 21.333334v810.666666z m-160-640c-29.866667 0-53.333333 23.466667-53.333333 53.333334 0 17.066667 8.533333 32 21.333333 42.666666 0 87.466667-119.466667 160-213.333333 160s-213.333333-72.533333-213.333333-160c12.8-10.666667 21.333333-25.6 21.333333-42.666666 0-29.866667-23.466667-53.333333-53.333333-53.333334S213.333333 300.8 213.333333 330.666667c0 25.6 19.2 46.933333 42.666667 53.333333 8.533333 106.666667 140.8 192 256 192s247.466667-85.333333 256-192c25.6-4.266667 42.666667-25.6 42.666667-53.333333 0-29.866667-23.466667-53.333333-53.333334-53.333334z" fill="#666767" p-id="7173"></path></svg>